<svg width="38" height="38" viewBox="0 0 38 38" fill="none" xmlns="http://www.w3.org/2000/svg">
<path d="M35.8769 10.2535L27.79 2.1795C26.6175 1.00885 24.7165 1.00885 23.544 2.1795L2.1229 23.5668C0.950406 24.7375 0.950405 26.6355 2.1229 27.8061L10.2097 35.8802C11.3822 37.0509 13.2832 37.0509 14.4557 35.8802L35.8769 14.4928C37.0493 13.3222 37.0493 11.4242 35.8769 10.2535Z" fill="#F6662C"/>
<path d="M10.2097 2.11969L2.12291 10.1937C0.950405 11.3644 0.950405 13.2624 2.12291 14.433L23.5441 35.8204C24.7166 36.991 26.6175 36.9911 27.79 35.8204L35.8769 27.7463C37.0494 26.5757 37.0494 24.6777 35.8769 23.507L14.4557 2.11969C13.2832 0.949037 11.3822 0.949037 10.2097 2.11969Z" fill="#F6662C"/>
</svg>
